<?xml version="1.0" encoding="iso-8859-1"?>
<!-- Uploaded to: SVG Repo, www.svgrepo.com, Generator: SVG Repo Mixer Tools -->
<!DOCTYPE svg PUBLIC "-//W3C//DTD SVG 1.1//EN" "http://www.w3.org/Graphics/SVG/1.1/DTD/svg11.dtd">
<svg fill="#000000" version="1.1" id="Capa_1" xmlns="http://www.w3.org/2000/svg" xmlns:xlink="http://www.w3.org/1999/xlink" 
	 width="800px" height="800px" viewBox="0 0 108.364 108.364"
	 xml:space="preserve">
<g>
	<g>
		<path d="M54.182,0C24.258,0,0,24.258,0,54.182c0,29.924,24.258,54.183,54.182,54.183c29.923,0,54.182-24.259,54.182-54.183
			C108.364,24.258,84.105,0,54.182,0z M33.366,48.262c-0.294-0.146-0.468-0.428-0.468-0.741v-3.554c0-0.181,0.084-0.351,0.225-0.463
			l4.664-3.68l-4.664-3.681c-0.141-0.112-0.225-0.281-0.225-0.462v-3.552c0-0.313,0.181-0.604,0.46-0.738
			c0.112-0.055,0.236-0.082,0.358-0.082c0.183,0,0.363,0.062,0.507,0.175l9.755,7.695c0.197,0.158,0.308,0.392,0.308,0.645
			s-0.11,0.486-0.304,0.641l-9.758,7.697C33.988,48.352,33.645,48.392,33.366,48.262z M64.42,83.794
			c-0.025,0.224-0.039,0.454-0.07,0.673c-0.853,5.879-3.895,9.92-9.041,12.014c-5.131-2.086-8.168-6.125-9.027-12.006
			c-0.032-0.221-0.046-0.455-0.072-0.681c-0.103-0.903-0.168-1.838-0.167-2.812c0-0.217,0.006-0.428,0.012-0.639
			c0.055-2.209,0.359-4.062,0.583-5.142c0.324-0.062,0.69-0.093,1.092-0.093c3.049,0,6.922,1.734,6.956,1.75
			c0.008,0.004,0.079,0.035,0.087,0.037c0.375,0.146,0.787,0.136,1.164-0.037c0.039-0.018,3.901-1.75,6.955-1.75
			c0.402,0,0.77,0.031,1.095,0.094c0.226,1.076,0.532,2.928,0.591,5.141c0.005,0.209,0.012,0.418,0.012,0.633
			C64.588,81.95,64.523,82.887,64.42,83.794z M67.862,80.1c-0.003-0.139,0.002-0.272-0.003-0.41
			c-0.145-3.848-0.885-6.592-0.889-6.61c-0.149-0.549-0.502-0.987-0.969-1.207c-0.863-0.405-1.912-0.612-3.113-0.612
			c-2.904,0-6.168,1.184-7.582,1.758c-1.41-0.573-4.667-1.758-7.581-1.758c-1.203,0-2.251,0.207-3.114,0.612
			c-0.467,0.218-0.819,0.657-0.969,1.205c-0.008,0.028-0.748,2.821-0.89,6.616c-0.005,0.138,0,0.271-0.003,0.406
			c-3.126-0.568-5.354-2.233-5.354-5.98c0-4.859,3.741-8.814,8.338-8.814c4.279,0,5.887,0.467,6.88,1.998
			c0.609,0.938,1.616,1.498,2.69,1.498c1.076,0,2.084-0.562,2.691-1.498c0.993-1.531,2.602-1.998,6.88-1.998
			c4.599,0,8.339,3.955,8.339,8.814C73.217,77.866,70.989,79.531,67.862,80.1z M76.405,35.68c0,0.181-0.083,0.351-0.226,0.463
			l-4.664,3.68l4.664,3.681c0.143,0.112,0.226,0.281,0.226,0.462v3.552c0,0.313-0.181,0.604-0.459,0.738
			c-0.113,0.055-0.237,0.082-0.359,0.082c-0.183,0-0.362-0.062-0.506-0.175l-9.755-7.695c-0.197-0.158-0.309-0.392-0.309-0.645
			s0.111-0.487,0.305-0.641l9.757-7.697c0.237-0.188,0.58-0.229,0.858-0.1c0.293,0.146,0.468,0.428,0.468,0.741V35.68z"/>
	</g>
</g>
</svg>